PathFileType	4	(X/Y/Z)	D:\Research_projects\MuscleProsody\BulkSports2Dtrack\RetrackedSports2D\p1_sample60_cam2\p1_sample60_cam2_Sports2D\p1_sample60_cam2_Sports2D_px_person00.trc
DataRate	CameraRate	NumFrames	NumMarkers	Units	OrigDataRate	OrigDataStartFrame	OrigNumFrames
60	60	4	22	m	60	0	780
Frame#	Time	Hip			RHip			RKnee			RAnkle			RBigToe			RSmallToe			RHeel			LHip			LKnee			LAnkle			LBigToe			LSmallToe			LHeel			Neck			Head			Nose			RShoulder			RElbow			RWrist			LShoulder			LElbow			LWrist		
		X1	Y1	Z1	X2	Y2	Z2	X3	Y3	Z3	X4	Y4	Z4	X5	Y5	Z5	X6	Y6	Z6	X7	Y7	Z7	X8	Y8	Z8	X9	Y9	Z9	X10	Y10	Z10	X11	Y11	Z11	X12	Y12	Z12	X13	Y13	Z13	X14	Y14	Z14	X15	Y15	Z15	X16	Y16	Z16	X17	Y17	Z17	X18	Y18	Z18	X19	Y19	Z19	X20	Y20	Z20	X21	Y21	Z21	X22	Y22	Z22
0	0.0	241.47004896146447	516.3693393494415	0.0	214.95010225177404	518.1451591898591	0.0	216.70041949551413	630.349365067234	0.0	222.9232710583602	728.5231716221188	0.0	226.4294475765383	767.3874266941601	0.0	210.53702656358232	760.3409181190846	0.0	229.12286228354947	735.5934464329318	0.0	268.8727814268061	519.0267650485997	0.0	266.2361285748862	632.140179571864	0.0	267.1179770340167	729.4035892522203	0.0	258.2945371340108	767.4001781297657	0.0	277.7399271881518	762.103993012298	0.0	265.35599020168803	732.9651777101991	0.0	247.64619822320472	325.53248860759476	0.0	246.80518704671337	240.62159168249164	0.0	234.38790912863243	291.9086504863009	0.0	194.5887716774035	361.75657786714424	0.0	181.36728517565498	442.1741658680868	0.0	169.00507362570121	522.6572651271056	0.0	304.2214551895604	360.01014103679023	0.0	316.5828482199863	445.6987616673249	0.0	322.78950401996843	527.0511245340954	0.0
1	0.016666666666666666	241.36025179330582	516.1821609945691	0.0	214.8525791679689	518.5054532349204	0.0	216.64010222286322	630.2903105695775	0.0	222.93437948924793	728.5146328307079	0.0	226.09062672562706	767.3655955449018	0.0	210.0135623376578	760.394277248957	0.0	228.9206443854597	735.5814708321894	0.0	268.5783472347698	519.4224249157539	0.0	266.20289159642243	632.1460540191248	0.0	267.25376885047507	729.2797130066975	0.0	258.4449490817049	767.1534517590802	0.0	277.68520982821855	762.0509287194062	0.0	265.5859411739711	733.2379038623393	0.0	247.70392359521867	325.5827364059354	0.0	246.95671598017728	240.77885957454313	0.0	234.26854137758644	291.76856859850307	0.0	194.8543190522268	361.6333613057852	0.0	181.48666468369896	442.4140176136122	0.0	168.97483592544157	522.5352471265699	0.0	304.1248865064715	359.9738065950002	0.0	316.36879570532966	445.89671025515895	0.0	322.9068112484466	527.1100408601051	0.0
2	0.03333333333333333	241.2635711592198	516.0189677335769	0.0	214.76589294944054	518.8575572620352	0.0	216.5847798217654	630.2449684701585	0.0	222.94036435467174	728.5029503942909	0.0	225.7729058419299	767.3507226358887	0.0	209.52578061925507	760.4430462684688	0.0	228.72523194691354	735.5720237428534	0.0	268.3113995735576	519.8036013863132	0.0	266.17512744320453	632.1499128949628	0.0	267.38102340992697	729.1513129252685	0.0	258.60083236799903	766.9280590687392	0.0	277.64453474237763	761.9978473787068	0.0	265.7981419358477	733.4772799013722	0.0	247.7634405169834	325.6261471956911	0.0	247.09804032583372	240.93621258726444	0.0	234.16239691979496	291.64555963307305	0.0	195.10624611005696	361.5125167786513	0.0	181.59389659984504	442.6304014795563	0.0	168.94112760740578	522.4080681351903	0.0	304.0327432546337	359.93084839354884	0.0	316.17268721399483	446.07266324493105	0.0	323.0139374517725	527.1516925365619	0.0
3	0.05	241.1890258398477	515.8898551553166	0.0	214.69724091202986	519.1854147935128	0.0	216.5336355554575	630.2068711960659	0.0	222.9393472209222	728.4826001042525	0.0	225.4901491114702	767.344334488621	0.0	209.09947673706154	760.4848005109608	0.0	228.5455263585358	735.5631682525855	0.0	268.09264253119716	520.1522475713614	0.0	266.16018464320445	632.138235499452	0.0	267.49396118666016	729.0135600938346	0.0	258.7675041184077	766.7362447998846	0.0	277.6299168642755	761.9452935200629	0.0	265.9816233183427	733.6634787122964	0.0	247.82445731571394	325.6564328246251	0.0	247.22250293672076	241.0919347467146	0.0	234.07778503345153	291.54832885064525	0.0	195.3309021390364	361.39688615445687	0.0	181.680089115919	442.8098696326141	0.0	168.90259656320603	522.2795895382197	0.0	303.94863482546003	359.8798389068073	0.0	316.00468588172805	446.2139982535432	0.0	323.10586154188974	527.1678910817706	0.0
